/* XPM */
static char * C:\Users\subhan\Desktop\led_analyzer\ColorControl\pic\logo_hilscher_xpm[] = {
"122 90 23 1",
" 	c None",
".	c #E30613",
"+	c #E20512",
"@	c #E20612",
"#	c #E20613",
"$	c #E10512",
"%	c #E20513",
"&	c #E30612",
"*	c #E30512",
"=	c #E20511",
"-	c #1D1D1B",
";	c #1E1E1B",
">	c #1C1C1B",
",	c #1D1D1C",
"'	c #1C1C1A",
")	c #1D1D1A",
"!	c #E30513",
"~	c #1B1B1A",
"{	c #1B1B1B",
"]	c #1C1C19",
"^	c #1E1E1A",
"/	c #E10613",
"(	c #1C1C1C",
"                                                                                                                          ",
"                                                                                                                          ",
"                                                                        .                                                 ",
"                                                                                                                          ",
"                                                                       ++++                                               ",
"                                                                                                                          ",
"                                                                                                                          ",
"                                                                     @.........                                           ",
"                                                                                                                          ",
"                                                        #+++++++++$$$$$$$$$$$$$$%                                         ",
"                                                                                                                          ",
"                                              #####################################                                       ",
"                                           .........................................                                      ",
"                                          .                                                                               ",
"                                                                                                                          ",
"                                                                                                                          ",
"                               .........................................................&                                 ",
"                             .............................................................                                ",
"                           &..............................................................*                               ",
"                         ..................................................................@                              ",
"                       $$$$$$$$$$$$$$$$$$$$$$$$$$$$$$$$$$$$$$$$$$$$$$$$$$$$$$$$$$$$$$$$$$$$$+                             ",
"                                                                                                                          ",
"                    ##################################$       ##########################+$$                               ",
"                  *..................................        #......................@                                     ",
"                 @.................................          .................+                                           ",
"                .................................*          .............@                                                ",
"               .................................            .........#                                                    ",
"              .................................            +.......&                                                      ",
"            .................................&             ......                                                         ",
"           =................................               ...&                                                           ",
"          =................................               ...                                                             ",
"         &................................                .                                                               ",
"         ................................                +                                                                ",
"        ................................                                                                                  ",
"       ................................*                                                                                  ",
"      .................................                                                                                   ",
"     .................................                                                                                    ",
"     .................................                                                                                    ",
"    .................................                                                                                     ",
"   .................................%                                                                                     ",
"   .................................                                                                                      ",
"  +.................................                                                                                      ",
"                                                                                                                          ",
"                                                                                                                          ",
"  ......#            -;;;;-   ......                                    ------>                                           ",
"  ......#            >        ......                                    -     >                                           ",
"  ......#            >        ......                                    -     >                                           ",
"  ......#            >        ......                                    -     >                                           ",
"  ......#            ------   ......                                    -     >                                           ",
"  ......# .....@              ......       --,-              ---'       -     >  ---)           '---                 --)  ",
"  ......!.......!    ......   ......    )-      '>        >-     )-)    -     >--    '        '-     '>      ))))) ')  -  ",
"  ...............#   ......   ......   -          '      '          '   -     -              -         '          )    -  ",
"  ................   ......   ......  -            >    )            '  -              -    ~           -         -    -  ",
"  ................   ......   ......       >)-)     >  -      -      '  -                  )     ->))    '             -  ",
"  .................  ......   ...... -     '   ->>>>-        '  '     - -      >)>              )   '                  -  ",
"  .......   ......#  ......   ...... -      >->       )     '   '     ) -     '   -     - )     -    '    )          '{-  ",
"  ......#   ......#  ......   ......  '         >-    -     )           -     >   -     - -               -        -   -  ",
"  ......#   ......#  ......   ......  >            >  -     -           -     >   -     - -               )               ",
"  ......#   ......#  ......   ......   >'           ' -     ;           -     >   -     - '               '       )       ",
"  ......#   ......#  ......   ......     --)        > -     >    )))))) -     >   -     - -     )----------       -       ",
"  ......#   ......#  ......   ...... >{{{{{  ))       >     '   '     > -     >   -     - >     '                 )       ",
"  ......#   ......#  ......   ...... )     -           ]     ))'      - -     >   -     -       '-  '     -       )       ",
"  ......#   ......#  ......   ...... -     ----     )  -             '  -     >   -     -  '      '-     -        )       ",
"  ......#   ......#  ......   ......  '             -   >            >  -     >   -     -   )            )        )       ",
"  ......#   ......#  ......   ......   >          --     '         '-   -     >   -     )    >         ))         )       ",
"  !!!!!!     !!!!!   ......   ......    >>)    ->>         -)   -'-     ------>   -------     >-~   '-'      ------       ",
"                                                                                                                          ",
"                                                                                                                          ",
"                                                                                                                          ",
"                                                                                                                          ",
"                                                                                                                          ",
"    ++++++     *+++++                                                                 ---)                                ",
"   ........  !........* !...    ....  >------>  ------  -------  ------- ----   --  ------->  -------      --  ---   --   ",
"  #.&    ..& ..@    *.. !....   ....  >-    --  -         ^--    --      ----'  --  --    --  --           --  -'--  --   ",
"  ...        #.      .. !.!..! ..!..  >-    --  ------     -     ------  -- >-> --  --        ------>      --  -> -- --   ",
"  ...        #.      .. !.! ....# ..  >-------  -^         -     --      --  '- --  --        --           --  -> >--)-   ",
"  !......... .......... !.! *...  ..  >-----    --         -     --      --   ----  --------  --           --  ->  ----   ",
"   ........   ........  !.!  ../  ..  >-        ------>    -     ------- --   )---  -------'  -------      --  ->   ---   ",
"                                                                                                                          ",
"                                                                                                                          ",
"                                                                                                                          ",
"                                                                                                                          ",
"   ........  &........  #...    ....  ---'   ---  --    -- ---'  --  -> >-------    ---  ,------- -- )-------  ---   --   ",
"  #.%    ..& ..&    %.# #...&   ....  ----  >---  --    -- ----  --  -> -->   --   --)->    --    -- --'   --- -'--  --   ",
"  ...        ..      .. #. ..  ..@..  --{-- -'--  --    -- -) -- --  -> --         -- --    --    -- --     -- ->--- --   ",
"  ...        ..      .. #.  ..+.# ..  -- -->- --  --    -- -) -----  -> --        >-' >--   --    -- --     -- -> ---)-   ",
"  ...    ... ..&    !.. #.  #...  ..  --  --- --  --   '-) -)  ----  -> -->   --  -------   --    -- ---   --> ->  ----   ",
"   ........  @........  #.   ..+  ..  --  --  --  -------  -)   ---  -> (------) '-    >--  --    -- )-------  ->   ---   ",
"                                                                                                                          ",
"                                                                                                                          "};
